<?xml version="1.0" encoding="UTF-8"?>
<svg id="Capa_1" data-name="Capa 1" xmlns="http://www.w3.org/2000/svg" viewBox="0 0 447.13 315.96">
  <path d="m307.72,20.43c-38.97,5.95-76.1,10.62-111.41,23.85-3.54,1.32-6.93,3.15-10.19,5.08-7.93,4.71-8.66,7.38-3.79,16.04-2.33-.31-4.71,0-5.18-.8-1.41-2.39-3.59-5.98-2.71-7.71,2.08-4.11,5.03-9.12,8.9-10.73,14.53-6.09,29.23-12.5,44.5-15.95,25.93-5.86,52.38-9.44,78.55-14.33,3.35-.62,6.64-2.88,9.36-5.12,2.73-2.25,4.46-5.67,7.08-8.08,1.52-1.4,3.93-1.82,5.94-2.68.78,2.97,2.89,6.44,2,8.76-1.06,2.73-4.39,5.32-7.32,6.42-6.9,2.59-11.36,7.56-15.85,13-15.63,18.91-31.54,37.59-47.33,56.37-.79.94-1.51,1.95-1.54,4.47,11.99-4.25,24.18-7.99,35.92-12.84,37.82-15.6,73.25-35.74,107.76-57.58.71-.45,1.37-1.19,2.14-1.32,1.64-.28,3.33-.24,4.99-.33-.88,1.45-1.42,3.45-2.7,4.26-44.94,28.32-90.69,55.15-142.17,70.08-9.27,2.69-17.54,5.58-22.88,13.97-1.08,1.7-2.6,3.69-2.53,5.49.69,19.79,3.38,39.19,13.05,56.92,10.16,18.64,10.98,18.83,31.12,13.89,33.06-8.11,66.27-15.53,100.36-17.84,15.52-1.06,30.93-.58,45.44,5.89,8.95,3.99,17.38,9.36,17.9,20.26.51,10.79-6.99,17.2-15.63,22.01-3.85,2.14-8,3.98-12.24,5.12-47.15,12.62-92.86,8.84-136.79-12.81-4.87-2.4-9.4-5.79-13.47-9.42-3.11-2.77-5.91-3.35-9.67-2.14-11.84,3.81-23.74,7.45-35.03,10.97,0,5.93.36,11.18-.08,16.37-.76,8.87-6.68,15.29-14.33,16.26-6.38.81-10.37-3.3-8.31-9.04.73.3,1.6.43,2.13.92,5.05,4.76,10.13,4.15,13.59-2.04,3.49-6.24,3.43-12.86,1-20.2-12.11,4.24-24.02,8.41-35.93,12.57-32.79,11.47-66.38,18.52-101.3,17.07-23.07-.96-45.57-4.68-64.42-19.54C5.68,207.32-1.89,196.58.42,181.64c1.78-11.53,9.2-19.13,18.74-25.03,15.53-9.61,32.85-13.48,50.69-14.56,33.38-2.02,66.71-.68,97.93,12.44,11.55,4.85,18.21,3.54,26.07-5.52,11.76-13.57,24.8-26.02,37.16-39.07,4.84-5.1,3.8-10.21-1.87-14.3-1.74-1.25-2.95-3.97-3.27-6.18-.17-1.15,2.03-3.62,3.34-3.76,1.72-.19,4.11.88,5.35,2.21,4.89,5.22,11.66,5.29,16.73-.62,16.52-19.26,32.9-38.64,49.31-57.99,2.01-2.37,3.91-4.84,7.11-8.82m-130.05,143.44c-1.56-.95-2.24-1.47-2.99-1.81-2.9-1.29-5.76-2.67-8.73-3.74-33.28-11.9-67.62-14.08-102.5-10.83-14.22,1.33-27.89,4.95-40.33,12.21C-.12,173.27-1.71,195.15,19.23,212.05c2.62,2.12,5.46,4,8.38,5.68,14.82,8.55,31.16,11.64,47.95,12.71,37.11,2.37,72.71-4.92,107.48-17.28,11.24-4,22.5-7.96,34-12.03-5.91-13.46-15.67-22.25-26.51-30.26-5.42-4-9.93-5.39-14.93.5-2.15,2.53-4.99,4.67-7.9,6.32-6.74,3.82-13.66,7.35-20.66,10.68-.89.42-2.68-1.06-4.06-1.65.95-.91,1.76-2.37,2.86-2.65,12.66-3.13,21.47-12.12,31.83-20.21m92.44,25.63c12.1,10.52,24.69,16.21,37.96,20.7,28.23,9.57,57.44,8.18,86.48,7.04,13.27-.52,26.45-3.73,37.8-11.4,14.04-9.49,13.41-21.76-1.31-30.07-2.01-1.14-4.11-2.42-6.32-2.87-8.44-1.71-16.9-4.07-25.44-4.46-26.6-1.19-52.56,4.12-78.43,9.42-16.48,3.38-32.8,7.5-50.73,11.64m-35.63-73.33c-15.87,15.27-31.95,30.75-48.32,46.51,15.45,9.05,28.18,20.45,35.73,36.64,13.09-4.07,25.5-7.93,38.75-12.04-18.67-21.04-24.32-46.08-26.15-71.11"/>
  <path d="m208.89,315.36v-23.45c7.34-.13,15.23-2.2,19.67,5.16,1.9,3.15,2.09,9,.43,12.31-4.14,8.24-12.49,5.61-20.1,5.98m2.61-2.52c6.09.06,12.33,1.63,15.25-4.53,1.3-2.75,1.13-7.4-.39-10.02-3.24-5.58-9.18-4.49-14.85-4.07v18.63Z"/>
  <path d="m132.43,315.96v-23.57c.5-.04,1-.08,1.5-.12.27,3.95.55,7.91.83,11.85.64.49,1.28.98,1.91,1.47,3.74-4.87,7.49-9.75,11.23-14.63.66.63,1.31,1.25,1.97,1.88-2.81,3.13-5.63,6.25-8.71,9.68,3.29,4.03,6.53,8,9.77,11.97-.38.38-.77.76-1.16,1.14-1.64-1.57-3.33-3.1-4.91-4.73-1.75-1.81-3.4-3.73-6.31-6.95-2.13,4.18-3.92,7.68-6.13,12"/>
  <path d="m261.34,315.44c-7-.05-12.08-5.03-12.13-11.89-.04-6.65,5.34-12.01,12.1-12.06,7.18-.06,12.53,5.29,12.36,12.36-.17,6.96-5.14,11.64-12.33,11.58m-.03-2.4c5.53.05,9.75-3.97,9.81-9.35.06-5.22-4.24-9.65-9.52-9.79-5.18-.13-9.72,4.25-9.79,9.45-.07,5.35,4.14,9.64,9.5,9.69"/>
  <path d="m332.14,302.04h13.25c.29-3.46.56-6.67.82-9.88.45,0,.9,0,1.35,0v22.83c-.35.07-.7.14-1.06.22-.35-3.2-.71-6.4-1.13-10.19h-13.61c-.34,3.41-.67,6.75-1,10.09-.49-.03-.99-.06-1.48-.09v-22.07c.37-.09.75-.17,1.12-.25.55,2.93,1.09,5.87,1.74,9.36"/>
  <path d="m189.89,314.68c-10.23-8.1-13.79-8.1-23.4-.06,3.56-7.68,7.12-15.37,10.68-23.05.71,0,1.41,0,2.12-.01,3.53,7.71,7.07,15.42,10.61,23.12m-11.79-20.02c-2.14,4.87-3.54,8.09-5.21,11.89h10.58c-1.69-3.75-3.18-7.04-5.37-11.89"/>
  <path d="m290.78,311.64c4.99.56,8.24,1.3,11.44,1.12,1.42-.08,3.3-1.75,3.87-3.15.31-.75-1.44-2.88-2.7-3.63-1.77-1.05-4.31-.94-5.87-2.16-2.06-1.62-4.93-4.15-4.78-6.09.16-2.03,3.2-4.82,5.48-5.45,2.83-.77,6.18.33,9.3.63-.08.62-.15,1.23-.23,1.85-2.51-.3-5.09-1.11-7.49-.74-1.73.27-3.21,2.11-4.81,3.25,1.19,1.47,2.12,3.39,3.64,4.3,2.13,1.27,4.98,1.39,7.02,2.76,1.51,1.01,3.21,3.35,3.02,4.87-.24,1.9-1.96,4.44-3.69,5.18-4.38,1.88-8.89,1.54-14.22-2.75"/>
</svg>